<?xml version="1.0" encoding="UTF-8" standalone="no"?>
<!DOCTYPE svg PUBLIC "-//W3C//DTD SVG 1.1//EN" "http://www.w3.org/Graphics/SVG/1.1/DTD/svg11.dtd">
<svg width="629px" height="110px" version="1.1" xmlns="http://www.w3.org/2000/svg" xmlns:xlink="http://www.w3.org/1999/xlink" xml:space="preserve" xmlns:serif="http://www.serif.com/" style="fill-rule:evenodd;clip-rule:evenodd;stroke-linejoin:round;stroke-miterlimit:2;">
    <g id="Artboard1" transform="matrix(0.984282,0,0,0.849138,-17.0193,-8.60865)">
        <rect x="17.291" y="10.138" width="638.755" height="129.404" style="fill:none;"/>
        <clipPath id="_clip1">
            <rect x="17.291" y="10.138" width="638.755" height="129.404"/>
        </clipPath>
        <g clip-path="url(#_clip1)">
            <g transform="matrix(3.00696,0,0,3.48554,-569.285,-747.341)">
                <g id="Ebene-5" serif:id="Ebene 5">
                    <g id="g4146">
                        <g id="g5316">
                            <g id="g1969">
                                <g id="text4301">
                                    <path id="path5308" d="M195.514,219.179L201.554,219.179L201.554,222.561C203.715,219.933 206.287,218.62 209.272,218.62C210.858,218.62 212.234,218.946 213.4,219.599C214.566,220.252 215.522,221.239 216.268,222.561C217.356,221.239 218.53,220.252 219.789,219.599C221.049,218.946 222.393,218.62 223.824,218.62C225.643,218.62 227.182,218.993 228.441,219.739C229.7,220.47 230.641,221.55 231.263,222.98C231.713,224.038 231.939,225.748 231.939,228.111L231.939,243.945L225.386,243.945L225.386,229.79C225.386,227.333 225.161,225.748 224.71,225.033C224.103,224.1 223.171,223.633 221.911,223.633C220.994,223.633 220.131,223.913 219.323,224.473C218.515,225.033 217.932,225.856 217.574,226.945C217.216,228.017 217.038,229.72 217.038,232.052L217.038,243.945L210.485,243.945L210.485,230.373C210.485,227.963 210.368,226.408 210.135,225.709C209.902,225.009 209.537,224.488 209.039,224.146C208.557,223.804 207.896,223.633 207.057,223.633C206.046,223.633 205.137,223.905 204.329,224.45C203.52,224.994 202.937,225.779 202.58,226.805C202.238,227.831 202.067,229.533 202.067,231.912L202.067,243.945L195.514,243.945L195.514,219.179Z" style="fill:rgb(112,111,111);fill-rule:nonzero;"/>
                                    <path id="path5310" d="M243.342,226.735L237.396,225.662C238.064,223.268 239.214,221.496 240.847,220.345C242.479,219.195 244.904,218.62 248.122,218.62C251.045,218.62 253.222,218.969 254.652,219.669C256.082,220.353 257.085,221.231 257.66,222.304C258.251,223.361 258.546,225.312 258.546,228.157L258.476,235.806C258.476,237.983 258.577,239.592 258.779,240.633C258.997,241.659 259.393,242.763 259.969,243.945L253.486,243.945C253.315,243.509 253.105,242.864 252.856,242.009C252.747,241.62 252.67,241.364 252.623,241.239C251.504,242.328 250.307,243.144 249.032,243.688C247.757,244.232 246.397,244.504 244.951,244.504C242.401,244.504 240.388,243.812 238.911,242.429C237.45,241.045 236.719,239.296 236.719,237.182C236.719,235.783 237.054,234.539 237.722,233.451C238.391,232.347 239.323,231.508 240.52,230.932C241.733,230.342 243.474,229.829 245.744,229.393C248.806,228.818 250.929,228.282 252.11,227.784L252.11,227.131C252.11,225.872 251.799,224.978 251.177,224.45C250.555,223.905 249.382,223.633 247.656,223.633C246.49,223.633 245.581,223.867 244.928,224.333C244.275,224.784 243.746,225.584 243.342,226.735L243.342,226.735ZM252.11,232.052C251.271,232.331 249.941,232.666 248.122,233.054C246.304,233.443 245.114,233.824 244.555,234.197C243.7,234.803 243.272,235.573 243.272,236.506C243.272,237.423 243.614,238.216 244.298,238.884C244.982,239.553 245.853,239.887 246.91,239.887C248.091,239.887 249.218,239.498 250.291,238.721C251.084,238.13 251.605,237.407 251.854,236.552C252.025,235.993 252.11,234.928 252.11,233.358L252.11,232.052Z" style="fill:rgb(112,111,111);fill-rule:nonzero;"/>
                                    <path id="path5312" d="M264.539,219.179L270.579,219.179L270.579,222.561C272.74,219.933 275.313,218.62 278.298,218.62C279.883,218.62 281.259,218.946 282.425,219.599C283.591,220.252 284.547,221.239 285.294,222.561C286.382,221.239 287.555,220.252 288.815,219.599C290.074,218.946 291.419,218.62 292.849,218.62C294.668,218.62 296.207,218.993 297.466,219.739C298.725,220.47 299.666,221.55 300.288,222.98C300.739,224.038 300.964,225.748 300.964,228.111L300.964,243.945L294.411,243.945L294.411,229.79C294.411,227.333 294.186,225.748 293.735,225.033C293.129,224.1 292.196,223.633 290.937,223.633C290.02,223.633 289.157,223.913 288.348,224.473C287.54,225.033 286.957,225.856 286.599,226.945C286.242,228.017 286.063,229.72 286.063,232.052L286.063,243.945L279.51,243.945L279.51,230.373C279.51,227.963 279.394,226.408 279.161,225.709C278.927,225.009 278.562,224.488 278.065,224.146C277.583,223.804 276.922,223.633 276.082,223.633C275.072,223.633 274.162,223.905 273.354,224.45C272.546,224.994 271.963,225.779 271.605,226.805C271.263,227.831 271.092,229.533 271.092,231.912L271.092,243.945L264.539,243.945L264.539,219.179Z" style="fill:rgb(112,111,111);fill-rule:nonzero;"/>
                                    <path id="path5314" d="M312.367,226.735L306.421,225.662C307.089,223.268 308.24,221.496 309.872,220.345C311.504,219.195 313.93,218.62 317.148,218.62C320.07,218.62 322.247,218.969 323.677,219.669C325.107,220.353 326.11,221.231 326.685,222.304C327.276,223.361 327.572,225.312 327.572,228.157L327.502,235.806C327.502,237.983 327.603,239.592 327.805,240.633C328.022,241.659 328.419,242.763 328.994,243.945L322.511,243.945C322.34,243.509 322.13,242.864 321.882,242.009C321.773,241.62 321.695,241.364 321.648,241.239C320.529,242.328 319.332,243.144 318.057,243.688C316.782,244.232 315.422,244.504 313.976,244.504C311.427,244.504 309.414,243.812 307.937,242.429C306.475,241.045 305.745,239.296 305.745,237.182C305.745,235.783 306.079,234.539 306.747,233.451C307.416,232.347 308.349,231.508 309.546,230.932C310.758,230.342 312.499,229.829 314.769,229.393C317.832,228.818 319.954,228.282 321.135,227.784L321.135,227.131C321.135,225.872 320.824,224.978 320.203,224.45C319.581,223.905 318.407,223.633 316.681,223.633C315.515,223.633 314.606,223.867 313.953,224.333C313.3,224.784 312.772,225.584 312.367,226.735L312.367,226.735ZM321.135,232.052C320.296,232.331 318.967,232.666 317.148,233.054C315.329,233.443 314.14,233.824 313.58,234.197C312.725,234.803 312.297,235.573 312.297,236.506C312.297,237.423 312.639,238.216 313.323,238.884C314.007,239.553 314.878,239.887 315.935,239.887C317.117,239.887 318.244,239.498 319.316,238.721C320.109,238.13 320.63,237.407 320.879,236.552C321.05,235.993 321.135,234.928 321.135,233.358L321.135,232.052Z" style="fill:rgb(112,111,111);fill-rule:nonzero;"/>
                                </g>
                                <g id="text4301-6">
                                    <path id="path5301" d="M331.295,236.879L337.871,235.876C338.151,237.151 338.718,238.122 339.573,238.791C340.428,239.444 341.625,239.77 343.165,239.77C344.859,239.77 346.134,239.459 346.989,238.838C347.564,238.402 347.852,237.819 347.852,237.089C347.852,236.591 347.696,236.179 347.385,235.853C347.059,235.542 346.328,235.254 345.193,234.99C339.908,233.824 336.557,232.759 335.143,231.795C333.184,230.458 332.204,228.6 332.204,226.222C332.204,224.076 333.052,222.273 334.746,220.812C336.441,219.35 339.068,218.62 342.628,218.62C346.017,218.62 348.536,219.172 350.184,220.275C351.832,221.379 352.966,223.012 353.588,225.172L347.409,226.315C347.144,225.351 346.639,224.613 345.893,224.1C345.162,223.587 344.113,223.33 342.745,223.33C341.019,223.33 339.783,223.571 339.037,224.053C338.54,224.395 338.291,224.838 338.291,225.382C338.291,225.849 338.508,226.245 338.944,226.572C339.534,227.007 341.571,227.621 345.053,228.414C348.551,229.207 350.992,230.178 352.376,231.329C353.744,232.495 354.428,234.119 354.428,236.203C354.428,238.472 353.479,240.423 351.583,242.056C349.686,243.688 346.88,244.504 343.165,244.504C339.791,244.504 337.117,243.82 335.143,242.452C333.184,241.084 331.901,239.226 331.295,236.879Z" style="fill:rgb(0,112,192);fill-rule:nonzero;"/>
                                    <path id="path5303" d="M357.086,219.179L364.059,219.179L369.982,236.762L375.765,219.179L382.551,219.179L373.806,243.012L372.244,247.326C371.669,248.772 371.117,249.875 370.588,250.637C370.075,251.399 369.477,252.013 368.793,252.479C368.124,252.961 367.292,253.334 366.297,253.599C365.318,253.863 364.206,253.995 362.963,253.995C361.703,253.995 360.467,253.863 359.255,253.599L358.672,248.468C359.698,248.671 360.623,248.772 361.447,248.772C362.97,248.772 364.098,248.321 364.828,247.419C365.559,246.533 366.119,245.398 366.507,244.014L357.086,219.179Z" style="fill:rgb(0,112,192);fill-rule:nonzero;"/>
                                    <path id="path5305" d="M384.463,236.879L391.039,235.876C391.319,237.151 391.886,238.122 392.742,238.791C393.597,239.444 394.794,239.77 396.333,239.77C398.027,239.77 399.302,239.459 400.157,238.838C400.732,238.402 401.02,237.819 401.02,237.089C401.02,236.591 400.864,236.179 400.554,235.853C400.227,235.542 399.496,235.254 398.361,234.99C393.076,233.824 389.726,232.759 388.311,231.795C386.352,230.458 385.373,228.6 385.373,226.222C385.373,224.076 386.22,222.273 387.914,220.812C389.609,219.35 392.236,218.62 395.796,218.62C399.185,218.62 401.704,219.172 403.352,220.275C405,221.379 406.135,223.012 406.756,225.172L400.577,226.315C400.313,225.351 399.807,224.613 399.061,224.1C398.33,223.587 397.281,223.33 395.913,223.33C394.187,223.33 392.951,223.571 392.205,224.053C391.708,224.395 391.459,224.838 391.459,225.382C391.459,225.849 391.677,226.245 392.112,226.572C392.703,227.007 394.739,227.621 398.222,228.414C401.719,229.207 404.16,230.178 405.544,231.329C406.912,232.495 407.596,234.119 407.596,236.203C407.596,238.472 406.648,240.423 404.751,242.056C402.854,243.688 400.048,244.504 396.333,244.504C392.959,244.504 390.285,243.82 388.311,242.452C386.352,241.084 385.069,239.226 384.463,236.879Z" style="fill:rgb(0,112,192);fill-rule:nonzero;"/>
                                </g>
                            </g>
                        </g>
                    </g>
                </g>
            </g>
        </g>
    </g>
</svg>
